<?xml version="1.0" encoding="UTF-8" standalone="no"?>
<svg
   xmlns:dc="http://purl.org/dc/elements/1.1/"
   xmlns:cc="http://creativecommons.org/ns#"
   xmlns:rdf="http://www.w3.org/1999/02/22-rdf-syntax-ns#"
   xmlns:svg="http://www.w3.org/2000/svg"
   xmlns="http://www.w3.org/2000/svg"
   xmlns:sodipodi="http://sodipodi.sourceforge.net/DTD/sodipodi-0.dtd"
   xmlns:inkscape="http://www.inkscape.org/namespaces/inkscape"
   version="1.0"
   width="91.088051"
   height="97.805649"
   id="svg2"
   inkscape:version="0.48.3.1 r9886"
   sodipodi:docname="logo.svg">
  <metadata
     id="metadata7">
    <rdf:RDF>
      <cc:Work
         rdf:about="">
        <dc:format>image/svg+xml</dc:format>
        <dc:type
           rdf:resource="http://purl.org/dc/dcmitype/StillImage" />
      </cc:Work>
    </rdf:RDF>
  </metadata>
  <sodipodi:namedview
     pagecolor="#ffffff"
     bordercolor="#666666"
     borderopacity="1"
     objecttolerance="10"
     gridtolerance="10"
     guidetolerance="10"
     inkscape:pageopacity="0"
     inkscape:pageshadow="2"
     inkscape:window-width="1029"
     inkscape:window-height="537"
     id="namedview5"
     showgrid="false"
     fit-margin-left="10"
     fit-margin-right="10"
     fit-margin-bottom="10"
     fit-margin-top="10"
     inkscape:zoom="0.57420925"
     inkscape:cx="404"
     inkscape:cy="211.86127"
     inkscape:window-x="65"
     inkscape:window-y="24"
     inkscape:window-maximized="0"
     inkscape:current-layer="svg2" />
  <defs
     id="defs6" />
  <path
     d="m 41.831938,10 0,9.69315 -7.282886,-4.21053 -3.697236,6.38275 10.980122,6.36044 0,14.3054 -12.334039,-7.12667 -0.02232,-12.74319 -7.379594,0.0149 0.01488,8.46571 L 13.689797,26.27678 10,32.66697 l 8.398751,4.8503 -7.290324,4.19566 3.674918,6.39763 11.002439,-6.33068 12.378673,7.14898 -12.334038,7.11922 -11.047074,-6.35299 -3.674918,6.39763 7.334959,4.22541 -8.421069,4.85774 3.689797,6.39019 8.398751,-4.8503 -0.01488,8.41363 7.379594,0.0149 0.02232,-12.69111 12.378673,-7.14155 0,14.23845 -11.024756,6.3902 3.697236,6.38275 7.32752,-4.24029 0,9.72291 7.379594,0 0,-9.69316 7.282885,4.21054 3.697236,-6.38275 -10.980121,-6.36044 0,-14.3054 12.334035,7.12666 0.0223,12.74319 7.37959,-0.0149 -0.0149,-8.4657 8.42106,4.86518 3.6898,-6.3902 -8.39875,-4.85029 7.29032,-4.19566 -3.67491,-6.39763 -10.995,6.33068 -12.386116,-7.14898 12.341476,-7.12667 11.03964,6.36044 3.67491,-6.39763 -7.33495,-4.22542 8.42106,-4.85773 -3.68979,-6.3902 -8.39875,4.8503 0.0149,-8.41363 -7.37959,-0.0149 -0.0223,12.69112 -12.37867,7.14154 0,-14.23845 11.024756,-6.39019 -3.697236,-6.38275 -7.32752,4.24029 0,-9.72291 -7.379593,0 z"
     id="rect2991"
     style="fill:#3d7dab;fill-opacity:1;stroke:none"
     inkscape:connector-curvature="0" />
</svg>
